<svg width="80" height="80" viewBox="0 0 80 80" fill="none" xmlns="http://www.w3.org/2000/svg">
<circle cx="40" cy="40" r="40" fill="#FFDD2D"/>
<path fill-rule="evenodd" clip-rule="evenodd" d="M24 32.0001C24 29.7601 24 28.6401 24.4363 27.7846C24.8196 27.0315 25.4316 26.4191 26.1845 26.0353C27.04 25.6001 28.16 25.6001 30.4 25.6001H49.6C51.84 25.6001 52.96 25.6001 53.8165 26.0364C54.5689 26.4201 55.1805 27.032 55.5637 27.7846C56 28.6401 56 29.7601 56 32.0001V43.2001C56 45.4401 56 46.5601 55.5637 47.4166C55.18 48.169 54.5681 48.7806 53.8155 49.1638C52.96 49.6001 51.84 49.6001 49.6 49.6001H41.3333L35.8048 54.7382C35.7116 54.8315 35.5928 54.895 35.4634 54.9207C35.3341 54.9465 35.2 54.9333 35.0782 54.8828C34.9564 54.8323 34.8522 54.7469 34.779 54.6372C34.7057 54.5276 34.6666 54.3986 34.6667 54.2668V49.6001H30.4C28.16 49.6001 27.04 49.6001 26.1845 49.1638C25.4314 48.7805 24.819 48.1685 24.4352 47.4156C24 46.5601 24 45.4401 24 43.2001V32.0001ZM30.6667 33.6001C30.6667 32.8641 31.264 32.2668 32 32.2668H45.3333C45.687 32.2668 46.0261 32.4072 46.2761 32.6573C46.5262 32.9073 46.6667 33.2465 46.6667 33.6001C46.6667 33.9537 46.5262 34.2929 46.2761 34.5429C46.0261 34.793 45.687 34.9334 45.3333 34.9334H32C31.264 34.9334 30.6667 34.3361 30.6667 33.6001ZM30.6667 38.9334C30.6667 38.1974 31.264 37.6001 32 37.6001H40.8885C41.2422 37.6001 41.5813 37.7406 41.8313 37.9906C42.0814 38.2407 42.2219 38.5798 42.2219 38.9334C42.2219 39.2871 42.0814 39.6262 41.8313 39.8762C41.5813 40.1263 41.2422 40.2668 40.8885 40.2668H32C31.264 40.2668 30.6667 39.6694 30.6667 38.9334Z" fill="#333333"/>
</svg>
