<svg width="300" height="77" viewBox="0 0 300 77" fill="none" xmlns="http://www.w3.org/2000/svg">
<g clip-path="url(#clip0_321_28)">
<path d="M288.696 0H11.3037C5.06084 0 0 5.06084 0 11.3037V65.523C0 71.7658 5.06084 76.8267 11.3037 76.8267H288.696C294.939 76.8267 300 71.7658 300 65.523V11.3037C300 5.06084 294.939 0 288.696 0Z" fill="#FFDD2D"/>
<path d="M258.953 25.8494V28.1253C267.63 28.3149 272.798 31.9658 272.798 38.4141C272.798 44.8625 267.63 48.229 258.953 48.4185V50.6944H252.078V48.4185C243.448 48.229 238.28 44.8625 238.28 38.4141C238.28 31.9658 243.448 28.3149 252.078 28.1253V25.8494H258.953ZM252.078 43.5823V33.0089C247.336 33.1986 245.25 35.3796 245.25 38.4141C245.25 41.4487 247.336 43.3927 252.078 43.5823ZM258.953 33.0089V43.5823C263.741 43.3927 265.781 41.4487 265.781 38.4141C265.781 35.3796 263.741 33.1986 258.953 33.0089Z" fill="#333333"/>
<path d="M222.234 25.8494V28.1253C230.91 28.3149 236.078 31.9658 236.078 38.4141C236.078 44.8625 230.91 48.229 222.234 48.4185V50.6944H215.359V48.4185C206.73 48.229 201.562 44.8625 201.562 38.4141C201.562 31.9658 206.73 28.3149 215.359 28.1253V25.8494H222.234ZM215.359 43.5823V33.0089C210.618 33.1986 208.531 35.3796 208.531 38.4141C208.531 41.4487 210.618 43.3927 215.359 43.5823ZM222.234 33.0089V43.5823C227.023 43.3927 229.061 41.4487 229.061 38.4141C229.061 35.3796 227.023 33.1986 222.234 33.0089Z" fill="#333333"/>
<path d="M184.591 26.5132C193.79 26.5132 199.338 31.7287 199.338 38.4615C199.338 45.1944 193.79 50.4099 184.591 50.4099C175.346 50.4099 169.798 45.1944 169.798 38.4615C169.798 31.7287 175.346 26.5132 184.591 26.5132ZM184.591 44.9099C189.143 44.9099 192.131 42.1598 192.131 38.4615C192.131 34.7633 189.143 32.0606 184.591 32.0606C179.993 32.0606 177.053 34.7633 177.053 38.4615C177.053 42.1598 179.993 44.9099 184.591 44.9099Z" fill="#333333"/>
<path d="M153.091 41.1643H151.195V49.6988H144.32V27.1296H151.195V35.6168H153.091L161.39 27.1296H170.019L159.019 37.9401L170.446 49.6988H161.295L153.091 41.1643Z" fill="#333333"/>
<path d="M130.571 49.6988H116.63V27.1296H123.506V33.1987H130.571C132.278 33.1987 134.08 33.2461 135.597 33.8151C138.773 35.0004 140.765 37.6081 140.765 41.354C140.765 45.2893 138.442 48.1816 134.886 49.1772C133.558 49.5566 132.136 49.6988 130.571 49.6988ZM129.385 38.509H123.506V44.2462H129.385C130.571 44.2462 131.33 44.2462 132.088 43.9142C133.179 43.4402 133.843 42.4444 133.843 41.2591C133.843 40.1212 133.179 39.1729 132.041 38.7936C131.235 38.509 130.334 38.509 129.385 38.509Z" fill="#333333"/>
<path d="M104.549 41.3065H93.5016V49.6988H86.6265V27.1296H93.5016V35.3797H104.549V27.1296H111.424V49.6988H104.549V41.3065Z" fill="#333333"/>
<path d="M63.4971 40.2634L75.3507 27.1296H81.4198V49.6988H74.5446V36.565L62.6911 49.6988H56.6221V27.1296H63.4971V40.2634Z" fill="#333333"/>
<path d="M44.0085 49.6988H36.8963V33.1512H27.1289V27.1296H53.7758V33.1512H44.0085V49.6988Z" fill="#333333"/>
</g>
<defs>
<clipPath id="clip0_321_28">
<rect width="300" height="76.865" fill="white"/>
</clipPath>
</defs>
</svg>
