<svg width="190" height="49" viewBox="0 0 190 49" fill="none" xmlns="http://www.w3.org/2000/svg">
<path d="M164.004 16.3711V17.8125C169.499 17.9326 172.772 20.2448 172.772 24.3288C172.772 28.4128 169.499 30.5449 164.004 30.6649V32.1063H159.65V30.6649C154.184 30.5449 150.911 28.4128 150.911 24.3288C150.911 20.2448 154.184 17.9326 159.65 17.8125V16.3711H164.004ZM159.65 27.6019V20.9055C156.646 21.0256 155.325 22.4069 155.325 24.3288C155.325 26.2507 156.646 27.4819 159.65 27.6019ZM164.004 20.9055V27.6019C167.036 27.4819 168.328 26.2507 168.328 24.3288C168.328 22.4069 167.036 21.0256 164.004 20.9055Z" fill="#333333"/>
<path d="M140.748 16.3711V17.8125C146.243 17.9326 149.517 20.2448 149.517 24.3288C149.517 28.4128 146.243 30.5449 140.748 30.6649V32.1063H136.394V30.6649C130.929 30.5449 127.656 28.4128 127.656 24.3288C127.656 20.2448 130.929 17.9326 136.394 17.8125V16.3711H140.748ZM136.394 27.6019V20.9055C133.392 21.0256 132.07 22.4069 132.07 24.3288C132.07 26.2507 133.392 27.4819 136.394 27.6019ZM140.748 20.9055V27.6019C143.781 27.4819 145.072 26.2507 145.072 24.3288C145.072 22.4069 143.781 21.0256 140.748 20.9055Z" fill="#333333"/>
<path d="M116.908 16.7917C122.734 16.7917 126.248 20.0949 126.248 24.359C126.248 28.6232 122.734 31.9264 116.908 31.9264C111.053 31.9264 107.539 28.6232 107.539 24.359C107.539 20.0949 111.053 16.7917 116.908 16.7917ZM116.908 28.443C119.791 28.443 121.683 26.7013 121.683 24.359C121.683 22.0168 119.791 20.3051 116.908 20.3051C113.996 20.3051 112.134 22.0168 112.134 24.359C112.134 26.7013 113.996 28.443 116.908 28.443Z" fill="#333333"/>
<path d="M96.9577 26.0707H95.7565V31.4759H91.4023V17.1821H95.7565V22.5573H96.9577L102.213 17.1821H107.678L100.712 24.0288L107.949 31.4759H102.153L96.9577 26.0707Z" fill="#333333"/>
<path d="M82.6949 31.4759H73.8657V17.1821H78.2205V21.0259H82.6949C83.7759 21.0259 84.9171 21.0559 85.8778 21.4162C87.8895 22.1669 89.1509 23.8185 89.1509 26.1909C89.1509 28.6833 87.6797 30.515 85.4275 31.1456C84.5863 31.3859 83.6857 31.4759 82.6949 31.4759ZM81.9439 24.3891H78.2205V28.0226H81.9439C82.6949 28.0226 83.1753 28.0226 83.6557 27.8124C84.3465 27.5121 84.7667 26.8815 84.7667 26.1308C84.7667 25.4101 84.3465 24.8095 83.6256 24.5693C83.1152 24.3891 82.5446 24.3891 81.9439 24.3891Z" fill="#333333"/>
<path d="M66.2143 26.1608H59.2175V31.4759H54.8633V17.1821H59.2175V22.4072H66.2143V17.1821H70.5685V31.4759H66.2143V26.1608Z" fill="#333333"/>
<path d="M40.2151 25.5002L47.7223 17.1821H51.566V31.4759H47.2119V23.1579L39.7046 31.4759H35.8608V17.1821H40.2151V25.5002Z" fill="#333333"/>
<path d="M27.872 31.4759H23.3677V20.9958H17.1816V17.1821H34.058V20.9958H27.872V31.4759Z" fill="#333333"/>
</svg>
