<svg width="60" height="60" viewBox="0 0 60 60" fill="none" xmlns="http://www.w3.org/2000/svg">
<rect width="60" height="60" rx="10" fill="#FFDD2D"/>
<path d="M9.5 50C9.5 50.2761 9.72386 50.5 10 50.5C10.2761 50.5 10.5 50.2761 10.5 50H9.5ZM10.3536 5.64645C10.1583 5.45118 9.84171 5.45118 9.64645 5.64645L6.46447 8.82843C6.2692 9.02369 6.2692 9.34027 6.46447 9.53553C6.65973 9.7308 6.97631 9.7308 7.17157 9.53553L10 6.70711L12.8284 9.53553C13.0237 9.7308 13.3403 9.7308 13.5355 9.53553C13.7308 9.34027 13.7308 9.02369 13.5355 8.82843L10.3536 5.64645ZM10.5 50L10.5 6H9.5L9.5 50H10.5Z" fill="black"/>
<path d="M10 49.5C9.72386 49.5 9.5 49.7239 9.5 50C9.5 50.2761 9.72386 50.5 10 50.5V49.5ZM54.3536 50.3536C54.5488 50.1583 54.5488 49.8417 54.3536 49.6464L51.1716 46.4645C50.9763 46.2692 50.6597 46.2692 50.4645 46.4645C50.2692 46.6597 50.2692 46.9763 50.4645 47.1716L53.2929 50L50.4645 52.8284C50.2692 53.0237 50.2692 53.3403 50.4645 53.5355C50.6597 53.7308 50.9763 53.7308 51.1716 53.5355L54.3536 50.3536ZM10 50.5L54 50.5V49.5L10 49.5V50.5Z" fill="black"/>
<path d="M10 50L27 38" stroke="black" stroke-linecap="round"/>
<path d="M27 38L37 18" stroke="black" stroke-linecap="round"/>
<path d="M37 18L54 6" stroke="black" stroke-linecap="round"/>
</svg>
